name C:\Users\r0593348\3dpredictsim\Results\MidTarsalJoint\Fal_s1_bCst_PF_Natali2010_ls150_MT_nl_k200_10_MTP_T5_ig24.mot
datacolumns 128
datarows 4
range 1.75153567 1.78656638
endheader
time	pelvis_tilt	pelvis_list	pelvis_rotation	pelvis_tx	pelvis_ty	pelvis_tz	hip_flexion_l	hip_adduction_l	hip_rotation_l	hip_flexion_r	hip_adduction_r	hip_rotation_r	knee_angle_l	knee_angle_r	ankle_angle_l	ankle_angle_r	subtalar_angle_l	subtalar_angle_r	tmt_angle_l	tmt_angle_r	mtp_angle_l	mtp_angle_r	lumbar_extension	lumbar_bending	lumbar_rotation	arm_flex_l	arm_add_l	arm_rot_l	arm_flex_r	arm_add_r	arm_rot_r	elbow_flex_l	elbow_flex_r	pro_sup_l	pro_sup_r	glut_med1_l/activation	glut_med2_l/activation	glut_med3_l/activation	glut_min1_l/activation	glut_min2_l/activation	glut_min3_l/activation	semimem_l/activation	semiten_l/activation	bifemlh_l/activation	bifemsh_l/activation	sar_l/activation	add_long_l/activation	add_brev_l/activation	add_mag1_l/activation	add_mag2_l/activation	add_mag3_l/activation	tfl_l/activation	pect_l/activation	grac_l/activation	glut_max1_l/activation	glut_max2_l/activation	glut_max3_l/activation	iliacus_l/activation	psoas_l/activation	quad_fem_l/activation	gem_l/activation	peri_l/activation	rect_fem_l/activation	vas_med_l/activation	vas_int_l/activation	vas_lat_l/activation	med_gas_l/activation	lat_gas_l/activation	soleus_l/activation	tib_post_l/activation	flex_dig_l/activation	flex_hal_l/activation	tib_ant_l/activation	per_brev_l/activation	per_long_l/activation	per_tert_l/activation	ext_dig_l/activation	ext_hal_l/activation	ercspn_l/activation	intobl_l/activation	extobl_l/activation	glut_med1_r/activation	glut_med2_r/activation	glut_med3_r/activation	glut_min1_r/activation	glut_min2_r/activation	glut_min3_r/activation	semimem_r/activation	semiten_r/activation	bifemlh_r/activation	bifemsh_r/activation	sar_r/activation	add_long_r/activation	add_brev_r/activation	add_mag1_r/activation	add_mag2_r/activation	add_mag3_r/activation	tfl_r/activation	pect_r/activation	grac_r/activation	glut_max1_r/activation	glut_max2_r/activation	glut_max3_r/activation	iliacus_r/activation	psoas_r/activation	quad_fem_r/activation	gem_r/activation	peri_r/activation	rect_fem_r/activation	vas_med_r/activation	vas_int_r/activation	vas_lat_r/activation	med_gas_r/activation	lat_gas_r/activation	soleus_r/activation	tib_post_r/activation	flex_dig_r/activation	flex_hal_r/activation	tib_ant_r/activation	per_brev_r/activation	per_long_r/activation	per_tert_r/activation	ext_dig_r/activation	ext_hal_r/activation	ercspn_r/activation	intobl_r/activation	extobl_r/activation	
          1.75153567	         -2.93002545	          2.19603895	         -5.85147702	          2.18941958	          0.91997706	          0.00211785	         28.75029619	          3.45612239	         -3.26894240	        -16.09893012	         -1.03452187	          6.21453378	         -9.66069995	        -10.84484307	          5.32274534	         -4.71030644	         -4.35693265	          8.38678817	         -1.11635390	          5.16263630	          3.13126611	         12.69317683	         -1.63871511	         -0.29532047	          2.18185877	         -4.59479307	        -13.45484301	          9.73182832	          4.83401025	        -13.45575498	         16.91092347	         14.42278482	         34.73715888	         86.51662706	         86.51662706	          0.05973074	          0.05973076	          0.05000015	          0.05973084	          0.05973083	          0.05420779	          0.21546278	          0.09603655	          0.14346247	          0.05973111	          0.05000019	          0.15047257	          0.29544834	          0.21309528	          0.23809339	          0.12016484	          0.05000014	          0.05002353	          0.14411764	          0.05000070	          0.05074626	          0.17069763	          0.05973045	          0.05000144	          0.29642756	          0.30459402	          0.14540604	          0.05000040	          0.10449033	          0.10288294	          0.09209016	          0.07324166	          0.07554354	          0.06362695	          0.05000007	          0.05000141	          0.05000063	          0.49414459	          0.24176325	          0.16458244	          0.19437536	          0.47148046	          0.24446942	          0.05023279	          0.11959847	          0.10183033	          0.22516682	          0.09840296	          0.06151987	          0.25486891	          0.17364599	          0.10183218	          0.05000155	          0.05000025	          0.05000014	          0.05000178	          0.10374959	          0.11144351	          0.08718176	          0.05000108	          0.05000156	          0.05000043	          0.30167030	          0.11245284	          0.05001511	          0.05000088	          0.05000054	          0.05000047	          0.39595303	          0.61883088	          0.05000011	          0.05000038	          0.05000140	          0.34717868	          0.05000018	          0.05000016	          0.05000014	          0.25237451	          0.35158770	          0.32759437	          0.25953136	          0.23697750	          0.31529426	          0.05000001	          0.05973096	          0.13784009	          0.05000014	          0.05000003	          0.05000013	          0.05000001	          0.05000009	          0.07235756	
          1.76321257	         -2.92887944	          2.26609045	         -6.11606061	          2.20730840	          0.91911623	          0.00194518	         28.08042035	          3.84778890	         -3.03715603	        -15.94852198	         -1.34544164	          6.05266612	        -10.15366782	        -12.76083913	          4.73106077	         -5.40857756	         -4.74080949	          9.39172607	         -1.23930507	          3.86679790	          3.01414702	         14.93523725	         -1.41385790	         -0.47901401	          2.25753194	         -5.57818471	        -13.44971679	          9.53193612	          4.45716758	        -13.46914034	         17.12229160	         14.07421522	         36.04548568	         86.51662706	         86.51662706	          0.05000002	          0.05000007	          0.12256586	          0.05000010	          0.05000010	          0.05000010	          0.18036183	          0.08039133	          0.12009100	          0.05000121	          0.05029033	          0.12595917	          0.33463659	          0.34801162	          0.24222469	          0.12941179	          0.05000041	          0.07569378	          0.17355125	          0.07216455	          0.11285707	          0.15554848	          0.05000014	          0.05000059	          0.56090428	          0.25497257	          0.12171798	          0.05973030	          0.08746801	          0.08612251	          0.07708793	          0.07135361	          0.07135515	          0.06331750	          0.05973040	          0.05000220	          0.05921392	          0.48622372	          0.27298958	          0.21101994	          0.16270982	          0.43495600	          0.20464292	          0.05000000	          0.10011466	          0.08524113	          0.18848489	          0.08237216	          0.05932164	          0.21334826	          0.14535735	          0.08524274	          0.05000850	          0.05000174	          0.05000651	          0.05000016	          0.08684785	          0.20464490	          0.08316795	          0.07930706	          0.05973245	          0.05973236	          0.25252526	          0.09413410	          0.05001261	          0.05025015	          0.05972759	          0.05973104	          0.33144827	          0.57037417	          0.05973083	          0.05973069	          0.05000069	          0.29062008	          0.05974222	          0.14749602	          0.13526718	          0.21126011	          0.29431047	          0.27422588	          0.21725112	          0.19837166	          0.26392979	          0.05000008	          0.05000025	          0.15578325	          0.05000014	          0.05000012	          0.05000020	          0.06445797	          0.07135536	          0.07135551	
          1.77488948	         -2.92301584	          2.34375660	         -6.34528172	          2.22551490	          0.91820400	          0.00180392	         27.27816724	          4.11466213	         -2.77917795	        -15.75117875	         -1.65704550	          5.87999777	        -10.71741059	        -14.73453590	          4.23523065	         -6.23888797	         -5.13778692	         10.33345887	         -1.46530431	          2.39591337	          3.02629942	         17.27133211	         -1.16712023	         -0.67927086	          2.32027270	         -6.58804920	        -13.45591431	          9.38562384	          3.99574923	        -13.47875384	         17.24963732	         13.77036068	         37.34402662	         86.51662706	         86.51662706	          0.24936735	          0.26379638	          0.29740631	          0.46576776	          0.27905050	          0.19704302	          0.15114940	          0.07526143	          0.10331544	          0.06505642	          0.05000064	          0.10543916	          0.28012090	          0.29131706	          0.20276410	          0.14047104	          0.05000037	          0.06336295	          0.14527823	          0.14061787	          0.13463903	          0.13020844	          0.05000237	          0.05000039	          0.46952724	          0.21343502	          0.23215642	          0.05000007	          0.07321869	          0.07209239	          0.06452962	          0.05972942	          0.05973072	          0.05300352	          0.05000012	          0.05000043	          0.05000049	          0.55220947	          0.34602228	          0.17664289	          0.35733518	          0.50618094	          0.17137465	          0.06264219	          0.11999122	          0.07135449	          0.29327756	          0.06895299	          0.05000009	          0.26277339	          0.12167730	          0.07135595	          0.05000233	          0.05000021	          0.05000014	          0.05000087	          0.07269981	          0.17130623	          0.06961936	          0.06638725	          0.05000186	          0.05000149	          0.28719067	          0.07881799	          0.05000147	          0.05000108	          0.05000069	          0.05000062	          0.27745204	          0.53915465	          0.05000017	          0.05000050	          0.05000072	          0.25240449	          0.05000967	          0.12346747	          0.11323082	          0.17684367	          0.24636429	          0.22955167	          0.18185871	          0.16605499	          0.22093300	          0.08500754	          0.14994685	          0.15701945	          0.05000187	          0.10312832	          0.05522432	          0.06052555	          0.05973084	          0.05973098	
          1.78656638	         -2.91471385	          2.41368926	         -6.53536189	          2.24378263	          0.91726937	          0.00163534	         26.44497566	          4.34551939	         -2.52712706	        -15.45923270	         -1.95176447	          5.72203048	        -11.22849133	        -16.83168029	          3.68742405	         -7.14019074	         -5.54207755	         11.22251296	         -1.38289376	          0.78861391	          3.06104296	         19.48471603	         -0.92634222	         -0.87781656	          2.37258196	         -7.56915207	        -13.46323551	          9.30052662	          3.49605137	        -13.49645790	         17.32566799	         13.48240805	         38.60745451	         86.51662706	         86.51662706	          0.36705132	          0.36606114	          0.40022317	          0.38988951	          0.23359063	          0.25688351	          0.12652583	          0.09227127	          0.09310357	          0.05445831	          0.05000083	          0.08826207	          0.23448637	          0.24385874	          0.16973368	          0.17359341	          0.05000030	          0.05304093	          0.12161125	          0.24616798	          0.19962034	          0.17567899	          0.05000006	          0.05000008	          0.39303649	          0.17866434	          0.19433617	          0.05000008	          0.11600893	          0.12112233	          0.09401517	          0.05000003	          0.05000007	          0.05000000	          0.05000002	          0.05000010	          0.05000012	          0.61996863	          0.30297931	          0.16449774	          0.59141665	          0.55422463	          0.31338868	          0.07793268	          0.10044343	          0.05973013	          0.24549972	          0.05772001	          0.05000093	          0.21996508	          0.10185490	          0.05973143	          0.05000118	          0.05000016	          0.05000023	          0.05000007	          0.06085642	          0.20133537	          0.12401634	          0.05974936	          0.05972849	          0.14531124	          0.24040464	          0.06597937	          0.05000075	          0.05001054	          0.05000632	          0.05001281	          0.23225228	          0.47646514	          0.05259503	          0.05001944	          0.05000044	          0.21128524	          0.11587876	          0.12092883	          0.10183377	          0.14803402	          0.20622902	          0.19215535	          0.15223209	          0.13900302	          0.18494082	          0.18154919	          0.12551912	          0.13143943	          0.35010919	          0.19449298	          0.10936999	          0.07970897	          0.05000009	          0.05000021	
